<?xml version="1.0" encoding="UTF-8"?>
<svg xmlns="http://www.w3.org/2000/svg" viewBox="0 0 568 592.88">
  <defs>
    <style>
      .cls-1 {
        fill: #fff;
      }

      .cls-1, .cls-2, .cls-3, .cls-4, .cls-5, .cls-6, .cls-7 {
        stroke-linecap: round;
        stroke-linejoin: round;
        stroke-width: 1.5px;
      }

      .cls-1, .cls-2, .cls-3, .cls-4, .cls-5, .cls-7 {
        stroke: #010101;
      }

      .cls-8, .cls-2, .cls-6 {
        fill: none;
      }

      .cls-8, .cls-9, .cls-10 {
        stroke-width: 0px;
      }

      .cls-3 {
        fill: #fd9069;
      }

      .cls-9, .cls-5 {
        fill: #010101;
      }

      .cls-10 {
        fill: #fafafa;
      }

      .cls-4 {
        fill: #34353a;
      }

      .cls-6 {
        stroke: #fff;
      }

      .cls-7 {
        fill: #fd523a;
      }
    </style>
  </defs>
  <g id="Capa_1" data-name="Capa 1">
    <path class="cls-10" d="M245.43,257.01c-7.88,16.86-17.36,32.92-26.82,48.95-14.68,24.88-29.36,49.76-43.37,72.66-19.63-12.78-42.13-22.16-65.55-22.67-23.42-.51-47.75,8.86-61.7,27.67-13.95,18.82-15.06,47.35.33,65.01-15.52-2.41-31.58,6.36-39.9,19.67-8.33,13.32-9.5,30.32-5.35,45.47,5.55,20.26,20.46,37.76,39.59,46.44,19.13,8.69,35.11,8.4,54.02-.76,4.05,13.17,13.76,17.76,22.44,22.24,14,7.23,30.18,11.43,45.61,8.28,15.44-3.15,29.69-14.81,32.74-30.27,8.63,17.32,28.27,26.3,47.24,30.14,12.64,2.56,25.87,3.41,38.36.18,24.87-6.44,44.14-30.31,45.19-55.98,26.76.85,41.9-12.47,46.63-36.94,4.61-23.83-19.43-45.63-40.73-46.42,8.12-4.09,19.29-21.99,4.19-46.71-10.33-16.91-34.77-26.38-53.6-24.89,4.97-33.81,10.14-54.72,22.55-100.77-19-9.88-36.24-13.42-61.87-21.31h0Z"/>
    <path class="cls-2" d="M48.13,448.72c7.94,4.58,13.22,13.14,21.6,16.85,4.02,1.78,8.46,2.3,12.8,3.07"/>
    <path class="cls-2" d="M96.69,560.67c-5.89-16.61-2.6-36.16,8.39-49.93"/>
    <path class="cls-2" d="M197.66,561.49c2.17-11.15,2.35-22.68.52-33.88"/>
    <path class="cls-2" d="M334.33,451.61c-7.55-.19-15.14,2.47-20.92,7.33"/>
    <path class="cls-2" d="M327.94,534.55c-5.34-1.45-10.56-3.31-15.6-5.57"/>
    <path class="cls-2" d="M258.35,336.05c-16.36,33.79-24.19,71.21-40.47,105.04"/>
    <path class="cls-2" d="M201.84,367.77c-12.21,22.34-24.94,44.4-38.17,66.15"/>
    <path class="cls-2" d="M31.63,329.68c3.24-2,6.47-4.01,9.7-6.01"/>
    <path class="cls-2" d="M429.06,497.6c1.64,3.62,3.28,7.24,4.92,10.86.19.42.51.92.97.84.46-.07.13-1.01-5.89-11.71Z"/>
    <path class="cls-10" d="M186.87,141.01c-8.89-14.78-20.24-27.93-35.6-36.79-9.55-5.51-23.58-2.2-30.02,6.74-6.26,8.69-4.64,14.94.02,24.58-6.59-9.63-17.28-17.77-28.89-16.64-1.72.17-3.46.55-4.95,1.44-3.37,2.01-4.84,6.28-4.6,10.2s1.9,7.59,6.72,10.23c42.8,0,45.8.23,97.32.23h0Z"/>
    <path class="cls-10" d="M565.51,376.34c.68-7.28,2.37-18.15-2.26-23.81-5.05-6.18-14.76-6.89-21.92-3.37-7.17,3.52-11.16,10.06-14.92,17.11,2.74-4.93,3.38-10.21,3.77-15.83.51-7.4-2.4-16.27-9.59-18.06-3.07-.77-6.33-.05-9.29,1.07-8.91,3.36-16.16,10.22-21.6,18.04-5.43,7.82-10.94,18.39-14.41,25.93,33.74,0,51.21-1.06,90.21-1.06h0Z"/>
    <path class="cls-9" d="M504.26,430.53c-1.29-.18-2.66.45-3.37,1.54-.71,1.09-.74,2.59-.06,3.71,1.21,1.98,4.52,2.07,5.9.2,1.37-1.87.38-5.07-2.47-5.45h0Z"/>
    <path class="cls-9" d="M154.04,239.07c-.92-.12-1.9.32-2.41,1.1-.51.78-.53,1.85-.04,2.65.86,1.42,3.23,1.48,4.21.14.98-1.34.27-3.62-1.76-3.89h0Z"/>
    <path class="cls-9" d="M521.14,168.96c-.92-.12-1.9.32-2.41,1.1-.51.78-.53,1.85-.04,2.65.86,1.42,3.23,1.48,4.21.14.98-1.34.27-3.62-1.76-3.89Z"/>
  </g>
  <g id="Capa_3" data-name="Capa 3">
    <g>
      <rect class="cls-8" width="567.13" height="592.88"/>
      <path class="cls-7" d="M246.46,244.64c-16.55,5.83-30.05,19.71-35.41,36.42-.7,2.18-1.3,4.46-2.73,6.24-1.43,1.78-3.98,2.92-6.05,1.94-1.1-.52-1.88-1.53-2.48-2.59-1.83-3.27-2.21-7.14-2.37-10.89-.38-9.09.31-18.22,2.15-27.13,1.9-9.21,16.79-45.02,53.9-46.08.61,12.56-2.29,25-5.17,37.24-.68,2.89-1.42,5.89-1.84,4.85Z"/>
      <path class="cls-7" d="M311.36,267.72c8.77,15.2,9.99,34.52,3.18,50.7-.89,2.11-1.92,4.23-1.99,6.52-.08,2.28,1.12,4.81,3.33,5.41,1.17.32,2.43.06,3.57-.36,3.52-1.29,6.33-3.98,8.89-6.73,6.2-6.65,11.63-14.03,16.03-21.99,4.55-8.23,16.56-45.11-10.93-70.07-8.64,9.14-14.53,20.47-20.31,31.63-1.36,2.63-2.76,5.4-1.76,4.88h0Z"/>
      <path class="cls-3" d="M392.5,62.44c-2.52,31.54-10.08,62.8-20.5,92.76-15.4,44.28-33.74,89.95-64.41,130.8-20.92-4.02-61.45-22.94-68.81-24.66,18.46-98.54,46.19-160.55,95.06-218.03,5.15-6.06,10.54-12.08,16.18-18.08,9-9.57,18.79-18.85,30.18-24.37,3.77-.68,7.55,1.86,9.48,5.18,1.92,3.32,2.39,7.26,2.73,11.08,1.34,15.1,1.29,30.24.09,45.32Z"/>
      <path class="cls-7" d="M296.26,219.04c-3.02-1.16-6.21,1.62-7.79,4.45-9.43,16.87-28.6,61.92-36.57,84.15-.7,1.95-2.82,6.1,2.25,8.1,3.91,1.54,5.91-2.41,8.32-7.88,8.01-18.21,16.51-37.91,24.52-56.12,4.56-10.38,14.33-30.16,9.27-32.69h0Z"/>
      <path class="cls-1" d="M347.42,63.76c-4.01.33-8.06,1.35-11.45,3.52-3.85,2.47-6.44,6.53-8.2,10.75-1.28,3.08-2.2,6.4-1.9,9.73.2,2.18,1.72,16.23,19.15,18.36,4.3.52,20.32,1.92,24.69-14.15,2.74-10.08-3.32-29.75-22.29-28.21Z"/>
      <path class="cls-2" d="M347.61,69.94c-2.85.23-5.72.96-8.13,2.5-2.74,1.75-4.57,4.63-5.82,7.63-.91,2.19-1.56,4.54-1.35,6.9.14,1.55,1.22,11.52,13.59,13.03,3.05.37,14.42,1.36,17.52-10.04,1.95-7.15-2.36-21.11-15.82-20.02Z"/>
      <path class="cls-7" d="M392.5,62.44c-21.35-6.45-39.5-13.08-58.66-19.13,5.15-6.06,10.54-12.08,16.18-18.08,9-9.57,18.79-18.85,30.18-24.37,3.77-.68,7.55,1.86,9.48,5.18,1.92,3.32,2.39,7.26,2.73,11.08,1.34,15.1,1.29,30.24.09,45.32Z"/>
      <path class="cls-5" d="M420.13,68.03c1.64-2.21,2.74-4.94,2.51-7.69s-1.97-5.44-4.58-6.32c-2.65-.89-5.51.15-8.14,1.09-7.71,2.77-15.85,4.92-22.45,9.77-1.61,1.18-3.13,2.54-4.17,4.25-1.39,2.28-1.82,5.02-1.79,7.68.02,2.17.32,4.33.89,6.42,2.32,8.45,8.88,15.11,16.09,20.08,4.32-6.15,8.71-12.43,11.01-19.58.88-2.72,1.44-5.54,2.62-8.14,1.17-2.6,4.71-3.11,8.01-7.55Z"/>
      <path class="cls-1" d="M395.44,83.46c-.47.28-.88.65-1.21,1.09-.83,1.12-1.34,2.5-1.26,3.89.08,1.39.81,2.76,2.01,3.47,1.12.67,2.5.71,3.79.37-.23,4.04-.28,8.1-.61,12.48,1.89,2.15,4.47,3.68,7.26,4.3,2.79.62,5.78.33,8.68-.91.27-2.8.44-5.61.47-8.52,3.56-1.22,7.2-3.17,8.78-6.58,1.12-2.42,1.03-5.22.79-7.88-.6-6.62-2-13.17-4.19-19.25-2.32.26-4.67.53-6.86,1.33s-7.41,2.47-8.13,8.88c-.63,5.66.44,9.92.25,10.17-.18.24-3.33.51-4.09.46-.81-3-2.82-5.02-5.69-3.29Z"/>
      <path class="cls-2" d="M418.13,76.97c.84,1.99,1.68,3.99,2.71,6.08-1,.52-2.11.85-3.23.95"/>
      <path class="cls-2" d="M407.87,99.56c2.37.47,4.84.43,7.2-.1"/>
      <path class="cls-4" d="M417.77,114.53c3.13,20.85,2.44,85.41,2.38,103.08-21.12,3.45-37.89,2.85-58.79-1.76-.74-.16-1.52-.35-2.07-.87-.57-.54-.8-1.34-.89-2.11-.35-2.99,1.02-5.88,2.35-8.57,15.21-30.64,30.8-59.91,57.01-89.76Z"/>
      <path class="cls-7" d="M389.48,108.09c2.12-2.13,2.43-3.33,4.61-5.92,8.01,1.12,15.52,2.2,24.42,4.22-1.02,2.67-.54,4.98-1.09,8.14-12-2.32-17.54-3.75-27.95-6.44Z"/>
      <path class="cls-1" d="M412.66,363.38c-2.66,5.69-5.31,11.38-8.16,17.32,12.44,8.66,26.26,15.33,40.9,19.73-2.38-4.87-4.39-9.93-6-15.1-.56-1.79-1.07-3.66-.84-5.52.27-2.2,1.55-4.21,1.61-6.42-8.02-3.65-15.89-7.62-27.51-10.01Z"/>
      <path class="cls-1" d="M368.57,293.44c-7.02,2.35-13.87,5.18-20.5,8.46,4.6,13.71,9.2,27.42,13.8,41.12,1.59-6.16,3.18-12.33,4.77-18.49.53-2.06,1.08-4.16,2.22-5.96,1.14-1.8,2.97-3.29,5.1-3.46-1.01-7.89-2.56-15.7-5.39-21.67h0Z"/>
      <path class="cls-5" d="M349.54,216.07c-3.85,6.54-5.12,14.55-3.49,21.95,1.64,7.41,6.16,14.14,12.4,18.45,5.49,3.79,12.06,5.67,18.6,7,16.99,3.46,34.46,3.62,51.79,3.76,4.4.04,8.81.08,13.39.61-11.06,31.75-22.44,63.39-34.3,96.35,12.25,7.29,26.38,11.38,40.71,11.43,17.84-37.25,32.17-76.18,42.75-116.1,1.46-5.5,2.83-11.44.84-16.78-1.98-5.32-6.96-8.97-12.13-11.31-5.62-2.55-11.7-3.93-17.72-5.3-14.28-3.23-28.56-6.46-43.83-9.18-25.04.63-50.12-.18-69.02-.88h0Z"/>
      <path class="cls-5" d="M465.21,229.52c21.34-2.36,32.83,11.35,34.41,25.12.3,2.64.24,5.35-.49,7.91-.83,2.9-2.51,5.52-4.59,7.7-4.4,4.61-10.43,7.25-16.28,9.78-34.5,14.86-68.99,29.72-103.39,44.85-3.94-11.44-7.38-23.05-10.6-34.32,15.68-10.91,37.05-21.97,53.35-30.84,20.73-8.79,29.2-17.16,47.6-30.19Z"/>
      <path class="cls-1" d="M266.29,157.11c-3.39,1.43-7.41,1.55-10.23,3.91-1.65,1.37-2.67,3.34-3.62,5.26-1.35,2.73-2.68,5.55-2.93,8.58-.26,3.03.76,6.35,3.25,8.5.33,1.37.66,2.76.64,4.17-.01,1.11-.24,2.24.06,3.31.05.18.12.37.26.5.33.33.9.23,1.28-.02.74-.49,1.09-1.37,1.39-2.2.91-2.52,1.74-5.1,2.3-7.12,1.47-3.73,3.59-7.17,5.04-10.91,1.45-3.74,2.18-7.98,2.56-13.98Z"/>
      <path class="cls-7" d="M389.12,108.09c-3.63,3.61-7.43,7.04-11.93,10.79-38.03,10.64-75.54,23.18-112.56,37.09-2.29,9.15-4.36,18.36-5.71,26.83,36.27-7.64,72.42-15.9,107.33-25.24-7.05,19.53-13.73,39.2-20.19,60.03,10.01,2.8,19.57,7.01,29.34,11.93,5.75-4.02,11.56-8.08,16.28-13.27,12.13-13.33,15.6-32.16,18.57-49.93,3.13-18.7,4.76-32.9,7.5-51.79-7.54-1-19.3-3.97-28.64-6.44h0Z"/>
      <path class="cls-2" d="M399.78,198.33c-7.86,6.22-16.18,12.46-25.96,14.64.62,4.4,1.24,8.81,1.86,13.21"/>
      <path class="cls-6" d="M403.66,266.48c12.54.58,25.07,1.17,37.76,1.69-3.09,11.41-6.71,22.67-10.85,33.75"/>
      <path class="cls-6" d="M472.2,228.25c7.41,2.07,15.17,5.52,18.68,12.37,2.72,5.3,2.34,11.65,1.24,17.5-1.24,6.56-3.3,12.97-6.12,19.02"/>
    </g>
  </g>
</svg>