<?xml version="1.0" encoding="UTF-8"?>
<svg id="Capa_1" xmlns="http://www.w3.org/2000/svg" version="1.1" viewBox="0 0 39 38">
  <!-- Generator: Adobe Illustrator 29.0.1, SVG Export Plug-In . SVG Version: 2.1.0 Build 192)  -->
  <defs>
    <style>
      .st0 {
        fill: #34353a;
      }
    </style>
  </defs>
  <path class="st0" d="M38.5,6.3v24.9c0,.3-.1.6-.2.9-.8,3.1-3.4,5.2-6.7,5.2H7.4c-.4,0-.7,0-1.1,0-3.4-.5-5.8-3.3-5.8-6.8V7c0-.4,0-.9.1-1.3C1.2,2.5,3.9.2,7.3.2c8.1,0,16.3,0,24.4,0,3.2,0,5.9,2.1,6.6,5.2,0,.3.1.6.2.9h0ZM20.8,26.3c0-.2-.1-.4-.2-.6-.6-1.6-1.1-3.2-1.7-4.8-1.3-3.6-2.6-7.2-3.9-10.8-.1-.3-.2-.4-.6-.4-1.2,0-2.4,0-3.6,0-.3,0-.4,0-.4.3,0,.5-.2,1.1-.3,1.6-.5,1.5-1,2.9-1.5,4.4-1.1,3.2-2.3,6.5-3.4,9.8-.2.4-.1.5.3.5.8,0,1.7,0,2.5,0,.3,0,.5-.1.6-.5.3-1.1.7-2.1,1-3.2,0-.3.2-.3.5-.3,1.7,0,3.5,0,5.2,0,.3,0,.4.1.5.4.4,1.1.7,2.1,1.1,3.2.1.4.3.5.6.4.4,0,.8,0,1.2,0h2ZM25.1,20.9c.1,0,.2,0,.4,0h4.6c.8,0,1.6,0,2.5,0s.4-.1.4-.4c0-.6,0-1.2,0-1.7,0-2.4-1.3-4.9-4.6-5.2-2.5-.3-4.8.6-6.1,3.1-1,2-1.1,4.1-.3,6.2.7,1.8,2,3,3.8,3.5,1.8.4,3.5.3,5.2-.2,1-.3.8-.2.8-1.1,0-.6,0-1.3,0-2-.2,0-.3,0-.4.1-1.2.3-2.4.6-3.6.4-1.7-.2-2.7-1.2-2.8-2.7h0Z"/>
  <path class="st0" d="M14.8,19.2h-4.1c.7-2.2,1.3-4.4,2-6.6h0c.7,2.2,1.3,4.4,2,6.6h0Z"/>
  <path class="st0" d="M25.1,18.6c.2-1.7,1.5-2.7,3.1-2.2.8.2,1.4,1,1.5,1.8,0,.4-.1.5-.4.5h-3.8c-.1,0-.3,0-.4,0h0Z"/>
</svg>