<svg width="39" height="38" viewBox="0 0 39 38" fill="none" xmlns="http://www.w3.org/2000/svg">
<path d="M38.4724 6.26751V31.2075C38.4124 31.4975 38.3524 31.7875 38.2924 32.0675C37.5424 35.1875 34.8724 37.2575 31.5724 37.2575C23.5124 37.2575 15.4424 37.2575 7.38242 37.2575C7.01242 37.2575 6.64242 37.2475 6.27242 37.1875C2.88242 36.6675 0.492422 33.8875 0.482422 30.4375C0.482422 22.6375 0.482422 14.8275 0.482422 7.02751C0.482422 6.59752 0.512422 6.15751 0.592422 5.73751C1.23242 2.45751 3.89242 0.227515 7.26242 0.217515C15.4024 0.197515 23.5324 0.197515 31.6724 0.217515C34.9124 0.217515 37.5524 2.32751 38.2824 5.40751C38.3524 5.69751 38.4024 5.97751 38.4624 6.26751H38.4724ZM20.7924 26.3075C20.7224 26.0675 20.6924 25.8975 20.6324 25.7375C20.0724 24.1575 19.5024 22.5775 18.9424 20.9875C17.6524 17.3675 16.3624 13.7575 15.0824 10.1375C14.9724 9.82751 14.8324 9.72752 14.5024 9.72752C13.3124 9.74752 12.1324 9.73752 10.9424 9.72752C10.6824 9.72752 10.5924 9.78752 10.5524 10.0675C10.4824 10.5975 10.3824 11.1375 10.2124 11.6575C9.72242 13.1375 9.20242 14.5975 8.68242 16.0675C7.55242 19.3175 6.41243 22.5775 5.28242 25.8275C5.13242 26.2575 5.16242 26.2975 5.60242 26.2975C6.44242 26.2975 7.28242 26.2875 8.12242 26.2975C8.47242 26.2975 8.62243 26.1675 8.72243 25.8475C9.04243 24.7875 9.40242 23.7375 9.73242 22.6675C9.81242 22.4075 9.94242 22.3375 10.2024 22.3375C11.9324 22.3475 13.6624 22.3475 15.3924 22.3375C15.6824 22.3375 15.7924 22.4375 15.8824 22.7075C16.2324 23.7675 16.6124 24.8075 16.9524 25.8675C17.0624 26.2175 17.2424 26.3275 17.5924 26.3075C18.0024 26.2775 18.4124 26.3075 18.8124 26.3075C19.4424 26.3075 20.0724 26.3075 20.7824 26.3075H20.7924ZM25.1324 20.9275C25.2624 20.9275 25.3724 20.9075 25.4824 20.9075C27.0324 20.9075 28.5724 20.9075 30.1224 20.9075C30.9524 20.9075 31.7724 20.8875 32.6024 20.8875C32.8424 20.8875 32.9724 20.7875 32.9824 20.5375C33.0024 19.9575 33.0724 19.3775 33.0524 18.7975C32.9524 16.4075 31.7324 13.9375 28.4824 13.5875C25.9724 13.3175 23.6624 14.1675 22.3824 16.7175C21.3824 18.7175 21.2924 20.8175 22.0524 22.9075C22.7124 24.7275 24.0124 25.9175 25.9024 26.3875C27.6524 26.8175 29.4124 26.7275 31.1424 26.2275C32.1524 25.9375 31.9424 25.9975 31.9624 25.1175C31.9724 24.4675 31.9624 23.8175 31.9624 23.1275C31.7924 23.1775 31.6924 23.2175 31.5924 23.2475C30.4024 23.5775 29.2124 23.7975 27.9724 23.6475C26.3224 23.4375 25.3124 22.4875 25.1424 20.9375L25.1324 20.9275Z" fill="#FD523A"/>
<path d="M14.8127 19.2275H10.7627C11.4227 17.0175 12.0827 14.8475 12.7327 12.6775C12.7627 12.6775 12.7927 12.6775 12.8127 12.6775C13.4727 14.8575 14.1427 17.0275 14.8127 19.2375V19.2275Z" fill="#FD523A"/>
<path d="M25.1426 18.5875C25.3126 16.8775 26.6026 15.9275 28.2526 16.3475C29.0626 16.5575 29.6426 17.3075 29.7426 18.1075C29.7826 18.4575 29.6426 18.5875 29.3226 18.5875C29.0626 18.5875 28.8026 18.5875 28.5426 18.5875C27.5426 18.5875 26.5426 18.5875 25.5426 18.5875C25.4126 18.5875 25.2826 18.5775 25.1426 18.5675V18.5875Z" fill="#FD523A"/>
</svg>
