<?xml version="1.0" encoding="UTF-8"?>
<svg id="Capa_1" xmlns="http://www.w3.org/2000/svg" version="1.1" viewBox="0 0 39 38">
  <!-- Generator: Adobe Illustrator 29.0.1, SVG Export Plug-In . SVG Version: 2.1.0 Build 192)  -->
  <defs>
    <style>
      .st0 {
        fill: #34353a;
      }
    </style>
  </defs>
  <path class="st0" d="M.5,30.7V6.8c0,0,0,0,0-.1,0-.3,0-.6,0-.9.1-.4.2-.8.4-1.3.2-.7.6-1.3,1-1.8.4-.5,1-1,1.5-1.4.4-.3.9-.5,1.3-.7.6-.2,1.3-.4,2-.4h25.3c.1,0,.2,0,.3,0,.1,0,.2,0,.3,0,.1,0,.2,0,.3,0,.2,0,.4,0,.5.1.2,0,.4.2.6.2.5.2.9.5,1.4.7.4.3.7.6,1,1,.3.3.6.7.8,1,.2.4.5.9.6,1.4.1.3.2.7.3,1.1,0,.4,0,.8,0,1.3v11.9c0,2,0,4,0,6,0,2,0,4,0,5.9,0,.2,0,.5,0,.7-.1.4-.2.7-.3,1.1-.3.7-.6,1.3-1.1,1.8-.5.6-1.1,1.1-1.8,1.5-.4.2-.8.4-1.2.6-.3.1-.6.2-.9.2-.1.1-.3,0-.5,0-.2,0-.3,0-.5,0H7.6c-.5,0-.9,0-1.4,0-.2,0-.4,0-.6,0-.3-.1-.7-.1-1-.4-.7-.2-1.6-.8-1.9-1.2-.3-.3-.7-.6-.9-1-.2-.2-.3-.5-.5-.8-.3-.5-.5-1-.6-1.5,0-.3-.2-.7-.2-1v-.5s0,0,0,0h0ZM13.7,9.7c0,.4,0,.7,0,1.1h0c-.1.4-.2.7-.3,1-.3.6-.5,1.3-.7,2-.3.7-.5,1.4-.7,2.1-.2.5-.3,1.1-.5,1.6-.2.4-.3.9-.5,1.3-.3.6-.4,1.3-.7,2-.2.5-.4,1.1-.6,1.7-.2.6-.4,1.3-.7,1.9-.2.6-.4,1.1-.6,1.7,0,0,0,.2,0,.2h3.1c.2,0,.3,0,.4-.3.2-.5.3-.9.5-1.4.1-.3.2-.7.3-1,0-.4.3-.8.4-1.2h5.8c.1.3.2.6.3.8.2.6.4,1.2.6,1.9.1.4.3.8.5,1.2h3.7c0-.1,0-.2,0-.4-.1-.4-.3-.8-.4-1.2-.1-.3-.2-.6-.3-.9-.2-.4-.3-.9-.5-1.4-.2-.7-.5-1.3-.7-2-.2-.5-.4-1.1-.6-1.6-.2-.7-.5-1.3-.7-2-.2-.2-.2-.5-.3-.8,0-.3-.2-.6-.3-.8,0-.2-.1-.5-.2-.7-.2-.5-.4-1-.6-1.6-.1-.3-.2-.7-.3-1,0-.2-.2-.4-.3-.7,0-.2-.1-.5-.2-.7-.1-.4-.3-.7-.4-1.1h-4.4,0ZM29,13.7h-3c-.4,0-.4,0-.4.4v12c0,.1,0,.2.2.3.1,0,.2,0,.3,0h2.8c.1,0,.2,0,.3-.2,0,0,0-.2,0-.3v-11.8c0-.2,0-.3-.2-.5h0ZM25.4,10.4c0,.2,0,.4,0,.6,0,.2.2.5.3.7.2.3.5.4.8.6.3.1.6.1,1,.1.5,0,.9-.2,1.2-.5.2-.2.4-.5.5-.7.1-.3.1-.6.2-.9,0-.2,0-.4,0-.6,0-.2-.1-.3-.2-.5,0-.1-.2-.3-.3-.4-.1-.1-.3-.2-.4-.3-.4-.3-1.3-.3-1.8-.1-.5.2-.9.5-1.1,1-.2.3-.2.6-.2.9h0Z"/>
  <path class="st0" d="M14,19.2c0-.2.1-.4.2-.6.1-.4.2-.8.4-1.2,0-.4.3-.8.4-1.1.1-.5.3-1,.4-1.5.2-.6.3-1.2.5-1.8,0,0,0,0,0,0,0,0,0,0,0,0,.2.5.3,1.1.5,1.6.2.6.3,1.2.5,1.7,0,.3.1.5.2.8.1.5.3,1,.4,1.5,0,.2.1.4.2.6h-3.9,0Z"/>
</svg>