<svg width="39" height="38" viewBox="0 0 39 38" fill="none" xmlns="http://www.w3.org/2000/svg">
<path d="M0.467773 30.6724C0.467773 22.7024 0.467773 14.7424 0.467773 6.77239C0.567773 6.77239 0.537781 6.69239 0.537781 6.64239C0.557781 6.35239 0.527778 6.07239 0.597778 5.78239C0.707778 5.36239 0.797764 4.93239 0.957764 4.52239C1.20776 3.85239 1.55777 3.24239 1.99777 2.69239C2.43777 2.15239 2.95778 1.68239 3.53778 1.30239C3.95778 1.02239 4.41776 0.792391 4.88776 0.632391C5.51776 0.412391 6.16778 0.262392 6.84778 0.252392C7.66778 0.252392 8.47776 0.252392 9.29776 0.252392H32.1478C32.2578 0.252392 32.3978 0.212392 32.4778 0.262392C32.5878 0.342392 32.6878 0.312392 32.7878 0.332392C32.8978 0.352392 33.0178 0.382391 33.1278 0.402391C33.3078 0.432391 33.4878 0.492392 33.6678 0.532392C33.8978 0.592392 34.0978 0.692392 34.3178 0.772392C34.8178 0.942392 35.2478 1.23239 35.6778 1.52239C36.0778 1.79239 36.3878 2.16239 36.7278 2.49239C37.0378 2.79239 37.2878 3.15239 37.4878 3.51239C37.7378 3.95239 37.9678 4.42239 38.1178 4.92239C38.2278 5.27239 38.3378 5.64239 38.3778 6.00239C38.4178 6.42239 38.4678 6.84239 38.4678 7.27239C38.4678 9.26239 38.4678 11.2524 38.4678 13.2424V19.2124C38.4678 21.2124 38.4778 23.2224 38.4678 25.2224C38.4478 27.2024 38.5478 29.1824 38.3978 31.1624C38.3778 31.4124 38.3978 31.6824 38.3178 31.9024C38.1878 32.2624 38.1178 32.6324 37.9678 32.9824C37.6978 33.6424 37.3678 34.2724 36.9078 34.8024C36.3978 35.3824 35.8478 35.9024 35.1578 36.2924C34.7678 36.5124 34.3678 36.7024 33.9378 36.8524C33.6378 36.9624 33.3478 37.0724 33.0278 37.0724C32.8978 37.2124 32.6978 37.0724 32.5778 37.1524C32.4078 37.2524 32.2478 37.2124 32.0878 37.2124C24.4178 37.2124 16.7478 37.2124 9.08777 37.2124C8.60777 37.2124 8.12776 37.2124 7.63776 37.2124C7.16776 37.2124 6.68777 37.2624 6.21777 37.1424C6.02777 37.0924 5.80778 37.1124 5.62778 37.0524C5.30778 36.9324 4.94778 36.9124 4.65778 36.6924C3.99778 36.5324 3.10776 35.8624 2.76776 35.5324C2.43776 35.2224 2.09778 34.9224 1.84778 34.5424C1.67778 34.2924 1.50776 34.0524 1.35776 33.7824C1.08776 33.2824 0.847753 32.7824 0.727753 32.2324C0.647753 31.8924 0.53776 31.5524 0.54776 31.1924C0.54776 31.0424 0.54776 30.8924 0.54776 30.7424C0.54776 30.7224 0.497753 30.7024 0.477753 30.6824L0.467773 30.6724ZM13.6978 9.67239C13.6678 10.0524 13.6378 10.4024 13.6078 10.7524C13.6078 10.7724 13.6078 10.8024 13.6078 10.8224C13.4578 11.1224 13.4478 11.4724 13.3078 11.7724C12.9978 12.4124 12.8478 13.1124 12.5878 13.7724C12.3178 14.4524 12.1078 15.1524 11.8578 15.8424C11.6578 16.3824 11.5078 16.9324 11.3078 17.4724C11.1478 17.9124 11.0378 18.3724 10.8578 18.8024C10.5778 19.4524 10.4178 20.1524 10.1378 20.8024C9.90776 21.3424 9.75776 21.9324 9.54776 22.4824C9.29776 23.1224 9.12778 23.7924 8.87778 24.4324C8.65778 24.9924 8.48776 25.5824 8.29776 26.1624C8.27776 26.2324 8.32776 26.3524 8.38776 26.3624C8.44776 26.3624 8.50776 26.3624 8.57776 26.3624C9.53776 26.3624 10.5078 26.3624 11.4678 26.3624C11.7078 26.3624 11.7578 26.3124 11.8378 26.0724C11.9978 25.5924 12.1678 25.1224 12.3278 24.6424C12.4378 24.3124 12.5678 23.9924 12.6478 23.6624C12.7478 23.2324 12.9078 22.8324 13.0478 22.4324H18.8678C18.9678 22.7124 19.0778 22.9824 19.1678 23.2724C19.3778 23.8924 19.5678 24.5124 19.7778 25.1324C19.9178 25.5524 20.0878 25.9624 20.2278 26.3524H23.9478C23.9178 26.2224 23.9078 26.1024 23.8778 25.9924C23.7778 25.5824 23.6178 25.1824 23.4678 24.7924C23.3578 24.4924 23.2878 24.1724 23.1578 23.8824C22.9578 23.4424 22.8278 22.9824 22.6678 22.5324C22.4378 21.8724 22.2078 21.2124 21.9678 20.5524C21.7778 20.0224 21.5978 19.4924 21.4078 18.9724C21.1678 18.3124 20.8878 17.6724 20.7278 16.9924C20.5578 16.7524 20.5178 16.4624 20.4278 16.1924C20.3378 15.9124 20.2178 15.6424 20.1278 15.3524C20.0578 15.1224 19.9878 14.8924 19.8878 14.6724C19.6478 14.1724 19.5378 13.6324 19.3278 13.1224C19.1978 12.8024 19.1178 12.4724 18.9978 12.1424C18.9178 11.9124 18.8078 11.7024 18.7278 11.4724C18.6478 11.2424 18.5778 11.0124 18.4978 10.7824C18.3678 10.4124 18.2378 10.0524 18.1078 9.68239H13.6878L13.6978 9.67239ZM29.0078 13.6724C28.0078 13.6724 26.9978 13.6724 25.9878 13.6724C25.5678 13.6724 25.5578 13.6724 25.5578 14.0924C25.5578 17.9324 25.5578 21.7824 25.5578 25.6224C25.5578 25.7824 25.5578 25.9424 25.5578 26.1024C25.5578 26.2324 25.5878 26.3124 25.7278 26.3724C25.8378 26.4224 25.9278 26.4324 26.0378 26.4324C26.9278 26.4324 27.8178 26.4324 28.7078 26.4324C28.7578 26.4324 28.8078 26.4324 28.8578 26.4324C28.9978 26.4024 29.1078 26.3824 29.1378 26.1924C29.1478 26.1024 29.1978 25.9924 29.1978 25.8824C29.1978 21.9624 29.1978 18.0424 29.1978 14.1224C29.1978 13.9424 29.1478 13.7924 29.0078 13.6624V13.6724ZM25.4078 10.4024C25.4578 10.6124 25.3878 10.8224 25.4578 11.0424C25.5378 11.2924 25.6578 11.5224 25.7978 11.7124C25.9878 11.9824 26.2778 12.1524 26.5978 12.2724C26.9178 12.4024 27.2178 12.4024 27.5478 12.4024C28.0178 12.4024 28.4078 12.2124 28.7578 11.9124C28.9878 11.7124 29.1378 11.4524 29.2478 11.1924C29.3578 10.9224 29.3978 10.6224 29.4078 10.3324C29.4078 10.1524 29.3678 9.96239 29.3378 9.77239C29.3178 9.61239 29.2078 9.45239 29.1278 9.31239C29.0478 9.17239 28.9678 9.02239 28.8478 8.91239C28.7378 8.80239 28.5878 8.72239 28.4478 8.62239C28.0478 8.35239 27.1478 8.34239 26.6878 8.49239C26.1778 8.66239 25.8278 8.99239 25.5778 9.46239C25.4278 9.75239 25.3778 10.0724 25.4078 10.3924V10.4024Z" fill="#FD523A"/>
<path d="M13.9573 19.1524C14.0273 18.9224 14.0873 18.7124 14.1573 18.5124C14.2773 18.1124 14.4073 17.7224 14.5073 17.3224C14.6073 16.9324 14.7673 16.5624 14.8673 16.1724C15.0073 15.6724 15.1773 15.1824 15.3173 14.6924C15.4873 14.1024 15.6573 13.5224 15.8373 12.9424C15.8373 12.9124 15.8973 12.8924 15.9273 12.8624C15.9473 12.8824 15.9773 12.9124 15.9873 12.9324C16.1573 13.4524 16.3073 13.9824 16.4773 14.5124C16.6573 15.0924 16.7973 15.6924 17.0273 16.2524C17.0273 16.5424 17.1773 16.7824 17.2473 17.0524C17.3873 17.5524 17.5373 18.0424 17.6873 18.5424C17.7473 18.7524 17.8173 18.9524 17.8873 19.1624H13.9473L13.9573 19.1524Z" fill="#FD523A"/>
</svg>
