<svg width="37" height="42" viewBox="0 0 37 42" fill="none" xmlns="http://www.w3.org/2000/svg">
<path d="M0.217773 0.0168457H36.4678C36.4178 0.656846 36.3778 1.27685 36.3278 1.90685C36.2078 3.30685 36.0778 4.70685 35.9478 6.10685C35.7978 7.78685 35.6378 9.47685 35.4878 11.1568C35.3678 12.5068 35.2478 13.8468 35.1278 15.1968C34.9778 16.9168 34.8178 18.6468 34.6678 20.3668C34.5478 21.6968 34.4378 23.0368 34.3178 24.3668C34.1678 26.0868 34.0078 27.8168 33.8578 29.5368C33.7378 30.8968 33.6278 32.2568 33.5078 33.6168C33.4078 34.7868 33.3078 35.9568 33.1678 37.1268C33.1578 37.2568 32.9578 37.4268 32.8078 37.4668C31.2978 37.9068 29.7878 38.3168 28.2778 38.7468C25.1078 39.6268 21.9478 40.5168 18.7778 41.3868C18.5078 41.4568 18.1778 41.4668 17.9078 41.3868C13.2878 40.1168 8.67777 38.8168 4.05777 37.5468C3.65777 37.4368 3.44777 37.2968 3.41777 36.8368C3.32777 35.4768 3.18777 34.1168 3.06777 32.7568C2.90777 31.0168 2.75777 29.2868 2.59777 27.5468C2.47777 26.2368 2.36777 24.9368 2.25777 23.6268C2.09777 21.8768 1.94777 20.1268 1.78777 18.3768C1.66777 17.0268 1.55777 15.6768 1.43777 14.3368C1.28777 12.6268 1.12777 10.9168 0.977773 9.20685C0.857773 7.92685 0.747773 6.64685 0.637773 5.36685C0.497773 3.69685 0.357773 2.02685 0.217773 0.356846C0.217773 0.256846 0.217773 0.146846 0.217773 0.0168457ZM18.3478 7.57685C14.7178 7.57685 11.0878 7.57685 7.44777 7.57685C6.71777 7.57685 6.72777 7.58685 6.78777 8.29685C6.87777 9.33685 6.94777 10.3768 7.00777 11.4168C7.04777 12.0168 7.02777 12.0268 7.63777 12.0268C12.3978 12.0268 17.1478 12.0068 21.9078 11.9968C22.7578 11.9968 23.6178 11.9768 24.4678 11.9468C24.7278 11.9468 24.8478 12.0268 24.8178 12.2968C24.7778 12.7168 24.7578 13.1368 24.7278 13.5568C24.6678 14.3968 24.6078 15.2268 24.5578 16.0668C24.5378 16.3768 24.4278 16.5468 24.0578 16.5368C22.9578 16.5368 21.8678 16.5768 20.7678 16.5968C18.2778 16.6268 15.7778 16.6568 13.2878 16.6768C11.5278 16.6968 9.76777 16.6968 7.99777 16.7068C7.65777 16.7068 7.47777 16.7568 7.53777 17.1868C7.68777 18.3168 7.78777 19.4468 7.88777 20.5768C7.93777 21.1768 7.94777 21.2068 8.56777 21.1968C13.4178 21.1768 18.2678 21.1468 23.1178 21.1268C24.0678 21.1268 24.0678 21.1268 23.9878 22.0468C23.9878 22.0868 23.9878 22.1268 23.9878 22.1668C23.8078 23.7968 23.6178 25.4168 23.4478 27.0468C23.4178 27.3468 23.2978 27.4668 23.0178 27.5368C21.5378 27.9268 20.0678 28.3268 18.5878 28.7168C18.4378 28.7568 18.2578 28.7768 18.1178 28.7368C16.5978 28.3368 15.0878 27.9268 13.5678 27.5168C13.3378 27.4568 13.2378 27.3468 13.2178 27.1068C13.1278 26.0668 13.0078 25.0368 12.9278 23.9968C12.8978 23.6468 12.7378 23.5768 12.4378 23.5868C11.2878 23.5968 10.1378 23.5868 8.97777 23.5868C8.13777 23.5868 8.14777 23.5868 8.22777 24.4368C8.41777 26.4968 8.60777 28.5568 8.77777 30.6168C8.80777 30.9368 8.92777 31.0868 9.23777 31.1768C12.1378 31.9668 15.0278 32.7768 17.9278 33.5568C18.1578 33.6168 18.4378 33.6268 18.6778 33.5568C21.5778 32.7668 24.4678 31.9668 27.3678 31.1768C27.7178 31.0768 27.8378 30.9068 27.8578 30.5568C27.9578 29.1968 28.0778 27.8368 28.1978 26.4768C28.3478 24.7968 28.5078 23.1068 28.6578 21.4268C28.7778 20.0968 28.8878 18.7568 29.0078 17.4268C29.1578 15.6868 29.3178 13.9468 29.4778 12.2168C29.5978 10.8568 29.7178 9.49685 29.8578 8.13685C29.9078 7.59685 29.8978 7.56685 29.3378 7.56685C25.6678 7.56685 21.9878 7.56685 18.3178 7.56685L18.3478 7.57685Z" fill="#FD523A"/>
</svg>
