<?xml version="1.0" encoding="UTF-8"?>
<svg id="Capa_1" xmlns="http://www.w3.org/2000/svg" version="1.1" viewBox="0 0 37 42">
  <!-- Generator: Adobe Illustrator 29.0.1, SVG Export Plug-In . SVG Version: 2.1.0 Build 192)  -->
  <defs>
    <style>
      .st0 {
        fill: #34353a;
      }
    </style>
  </defs>
  <path class="st0" d="M.2,0h36.3c0,.6,0,1.3-.1,1.9-.1,1.4-.2,2.8-.4,4.2-.2,1.7-.3,3.4-.5,5-.1,1.3-.2,2.7-.4,4-.2,1.7-.3,3.4-.5,5.2-.1,1.3-.2,2.7-.4,4-.1,1.7-.3,3.4-.5,5.2-.1,1.4-.2,2.7-.3,4.1-.1,1.2-.2,2.3-.3,3.5,0,.1-.2.3-.4.3-1.5.4-3,.8-4.5,1.3-3.2.9-6.3,1.8-9.5,2.6-.3,0-.6,0-.9,0-4.6-1.3-9.2-2.6-13.9-3.8-.4-.1-.6-.2-.6-.7,0-1.4-.2-2.7-.3-4.1-.2-1.7-.3-3.5-.5-5.2-.1-1.3-.2-2.6-.3-3.9-.2-1.8-.3-3.5-.5-5.2-.1-1.4-.2-2.7-.4-4-.1-1.7-.3-3.4-.5-5.1-.1-1.3-.2-2.6-.3-3.8C.5,3.7.4,2,.2.4V0ZM18.3,7.6H7.4c-.7,0-.7,0-.7.7,0,1,.2,2.1.2,3.1,0,.6,0,.6.6.6,4.8,0,9.5,0,14.3,0,.8,0,1.7,0,2.6,0,.3,0,.4,0,.4.3,0,.4,0,.8,0,1.3,0,.8-.1,1.7-.2,2.5,0,.3-.1.5-.5.5-1.1,0-2.2,0-3.3,0-2.5,0-5,0-7.5,0-1.8,0-3.5,0-5.3,0-.3,0-.5,0-.5.5.2,1.1.2,2.3.4,3.4,0,.6,0,.6.7.6,4.9,0,9.7,0,14.6,0q1,0,.9.9h0c-.2,1.8-.4,3.4-.5,5,0,.3-.1.4-.4.5-1.5.4-2.9.8-4.4,1.2-.1,0-.3,0-.5,0-1.5-.4-3-.8-4.6-1.2-.2,0-.3-.2-.3-.4,0-1-.2-2.1-.3-3.1,0-.4-.2-.4-.5-.4-1.2,0-2.3,0-3.5,0s-.8,0-.8.9c.2,2.1.4,4.1.6,6.2,0,.3.1.5.5.6,2.9.8,5.8,1.6,8.7,2.4.2,0,.5,0,.8,0,2.9-.8,5.8-1.6,8.7-2.4.4-.1.5-.3.5-.6.1-1.4.2-2.7.3-4.1.1-1.7.3-3.4.5-5.1.1-1.3.2-2.7.3-4,.2-1.7.3-3.5.5-5.2.1-1.4.2-2.7.4-4.1,0-.5,0-.6-.5-.6h-11,0Z"/>
</svg>