<svg width="37" height="37" viewBox="0 0 37 37" fill="none" xmlns="http://www.w3.org/2000/svg">
<path d="M3.90265 0.482412C13.7826 0.482412 23.6726 0.482412 33.5526 0.482412C33.5826 0.502412 33.6126 0.532412 33.6426 0.532412C35.3226 0.742412 36.9926 2.29241 36.9826 4.64241C36.9526 14.0224 36.9826 23.4024 36.9626 32.7924C36.9626 33.1724 36.9427 33.5524 36.8527 33.9224C36.4127 35.7824 34.8526 36.9724 32.8626 36.9724C24.6226 36.9724 16.3827 36.9724 8.13266 36.9724C6.85266 36.9724 5.56265 37.0124 4.28265 36.9624C2.75265 36.9024 1.60265 36.1524 0.902649 34.7824C0.702649 34.4024 0.612656 33.9624 0.472656 33.5524C0.472656 23.6724 0.472656 13.7824 0.472656 3.90241C0.492656 3.85241 0.522654 3.80241 0.532654 3.74241C0.732654 2.65241 1.27265 1.76241 2.21265 1.17241C2.72265 0.852412 3.33264 0.702412 3.89264 0.472412L3.90265 0.482412ZM11.8827 14.6824C10.4927 15.7024 9.72264 17.0324 9.73264 18.7424C9.73264 20.4524 10.5127 21.7724 11.8727 22.7724C11.8526 22.8124 11.8426 22.8224 11.8326 22.8324C11.7426 22.9024 11.6426 22.9724 11.5526 23.0524C10.0226 24.3424 9.43266 25.9824 9.85266 27.9224C10.3527 30.2624 12.6526 31.9124 14.9626 31.6724C17.5726 31.4024 19.4826 29.3924 19.5126 26.8724C19.5326 25.4924 19.5126 24.1124 19.5126 22.7424C19.5126 22.6324 19.5126 22.5124 19.5126 22.3224C20.6726 23.3024 21.9426 23.7024 23.3626 23.5524C24.7926 23.4024 25.9426 22.7324 26.8026 21.5724C28.1726 19.7324 28.1926 16.5824 25.5726 14.6724C25.6426 14.6124 25.7126 14.5524 25.7926 14.4924C27.4726 13.2024 28.1327 11.0524 27.4727 9.08241C26.8127 7.11241 24.9726 5.78241 22.8626 5.78241C20.0926 5.78241 17.3227 5.78241 14.5627 5.78241C12.5227 5.78241 10.7326 7.04241 10.0226 8.92241C9.31264 10.8224 9.84265 12.9124 11.3727 14.2724C11.5326 14.4124 11.7027 14.5424 11.8727 14.6824H11.8827Z" fill="#FD523A"/>
<path d="M17.9223 7.39244V13.8824C17.7523 13.8824 17.5923 13.8824 17.4323 13.8824C16.4423 13.8824 15.4623 13.8924 14.4723 13.8824C13.0123 13.8524 11.7423 12.8124 11.4023 11.4124C11.0523 9.98244 11.6923 8.46244 13.0023 7.79244C13.4623 7.56244 14.0123 7.42244 14.5323 7.39244C15.5923 7.33244 16.6723 7.37244 17.7323 7.37244C17.7923 7.37244 17.8423 7.39244 17.9123 7.40244L17.9223 7.39244Z" fill="#FD523A"/>
<path d="M19.543 7.36242C19.693 7.36242 19.853 7.36242 20.003 7.36242C21.043 7.36242 22.093 7.33242 23.133 7.39242C24.843 7.49242 26.143 8.92242 26.143 10.6324C26.143 12.3324 24.833 13.7824 23.123 13.8724C21.943 13.9324 20.753 13.8824 19.543 13.8824V7.36242Z" fill="#FD523A"/>
<path d="M17.923 15.4824V21.9424C17.923 21.9424 17.883 21.9824 17.863 21.9824C16.653 21.9824 15.433 22.0524 14.233 21.9524C12.483 21.8024 11.2831 20.3624 11.3131 18.6324C11.3431 16.9824 12.6431 15.5924 14.3531 15.4924C15.5231 15.4224 16.703 15.4824 17.923 15.4824Z" fill="#FD523A"/>
<path d="M17.8724 23.5824C17.8724 24.8824 17.9724 26.1324 17.8524 27.3724C17.6724 29.0724 16.0124 30.2424 14.2124 30.0724C12.5424 29.9124 11.2623 28.4224 11.3223 26.6824C11.3723 25.0324 12.7724 23.6324 14.4624 23.5924C15.6124 23.5624 16.7624 23.5924 17.8824 23.5924L17.8724 23.5824Z" fill="#FD523A"/>
<path d="M26.1425 18.7224C26.1425 20.5324 24.6925 21.9824 22.8525 21.9924C21.0125 22.0024 19.5125 20.5324 19.5225 18.7224C19.5225 16.9224 21.0125 15.4624 22.8325 15.4624C24.6725 15.4624 26.1425 16.9124 26.1425 18.7224Z" fill="#FD523A"/>
</svg>
