<?xml version="1.0" encoding="UTF-8"?>
<svg id="Capa_1" xmlns="http://www.w3.org/2000/svg" version="1.1" viewBox="0 0 37 37">
  <!-- Generator: Adobe Illustrator 29.0.1, SVG Export Plug-In . SVG Version: 2.1.0 Build 192)  -->
  <defs>
    <style>
      .st0 {
        fill: #34353a;
      }
    </style>
  </defs>
  <path class="st0" d="M3.9.5h29.6s0,0,0,0c1.7.2,3.3,1.8,3.3,4.1,0,9.4,0,18.8,0,28.1,0,.4,0,.8-.1,1.1-.4,1.9-2,3-4,3H8.1c-1.3,0-2.6,0-3.9,0-1.5,0-2.7-.8-3.4-2.2-.2-.4-.3-.8-.4-1.2V3.9s0-.1,0-.2c.2-1.1.7-2,1.7-2.6.5-.3,1.1-.5,1.7-.7h0ZM11.9,14.7c-1.4,1-2.2,2.4-2.2,4.1,0,1.7.8,3,2.1,4,0,0,0,0,0,0,0,0-.2.1-.3.2-1.5,1.3-2.1,2.9-1.7,4.9.5,2.3,2.8,4,5.1,3.8,2.6-.3,4.5-2.3,4.6-4.8,0-1.4,0-2.8,0-4.1v-.4c1.2,1,2.4,1.4,3.9,1.2,1.4-.2,2.6-.8,3.4-2,1.4-1.8,1.4-5-1.2-6.9,0,0,.1-.1.2-.2,1.7-1.3,2.3-3.4,1.7-5.4-.7-2-2.5-3.3-4.6-3.3h-8.3c-2,0-3.8,1.3-4.5,3.1-.7,1.9-.2,4,1.4,5.3.2.1.3.3.5.4h0Z"/>
  <path class="st0" d="M17.9,7.4v6.5h-.5c-1,0-2,0-3,0-1.5,0-2.7-1.1-3.1-2.5-.3-1.4.3-2.9,1.6-3.6.5-.2,1-.4,1.5-.4,1.1,0,2.1,0,3.2,0s.1,0,.2,0h0Z"/>
  <path class="st0" d="M19.5,7.4h.5c1,0,2.1,0,3.1,0,1.7.1,3,1.5,3,3.2s-1.3,3.2-3,3.2c-1.2,0-2.4,0-3.6,0v-6.5Z"/>
  <path class="st0" d="M17.9,15.5v6.5s0,0,0,0c-1.2,0-2.4,0-3.6,0-1.8-.1-2.9-1.6-2.9-3.3,0-1.6,1.3-3,3-3.1,1.2,0,2.3,0,3.6,0Z"/>
  <path class="st0" d="M17.9,23.6c0,1.3.1,2.6,0,3.8-.2,1.7-1.8,2.9-3.6,2.7-1.7-.2-3-1.6-2.9-3.4,0-1.6,1.5-3,3.1-3.1,1.1,0,2.3,0,3.4,0h0Z"/>
  <path class="st0" d="M26.1,18.7c0,1.8-1.5,3.3-3.3,3.3-1.8,0-3.3-1.5-3.3-3.3,0-1.8,1.5-3.3,3.3-3.3s3.3,1.4,3.3,3.3Z"/>
</svg>