<svg width="37" height="42" viewBox="0 0 37 42" fill="none" xmlns="http://www.w3.org/2000/svg">
<path d="M18.2083 41.46H18.0483C17.9183 41.4 17.7983 41.32 17.6583 41.28C15.5483 40.69 13.4283 40.09 11.3183 39.5C8.77832 38.79 6.23832 38.08 3.68832 37.38C3.44832 37.31 3.30832 37.23 3.28832 36.93C3.20832 35.77 3.08832 34.62 2.98832 33.47C2.86832 32.15 2.75832 30.84 2.63832 29.52C2.48832 27.83 2.32832 26.14 2.17832 24.45C2.05832 23.09 1.94832 21.74 1.82832 20.38C1.67832 18.66 1.51832 16.94 1.36832 15.22C1.24832 13.89 1.13832 12.56 1.01832 11.23C0.868318 9.51 0.708319 7.79 0.558319 6.07C0.438319 4.69 0.308322 3.3 0.178322 1.92C0.118322 1.28 0.0783203 0.64 0.0283203 0H36.2183C36.1683 0.65 36.1283 1.27 36.0683 1.88C35.9183 3.57 35.7583 5.26 35.6083 6.95C35.4583 8.6 35.3283 10.25 35.1783 11.91C34.9983 13.88 34.8083 15.86 34.6383 17.83C34.4683 19.8 34.3083 21.78 34.1283 23.75C33.9283 26.03 33.7083 28.31 33.4983 30.6C33.3083 32.71 33.1183 34.82 32.9483 36.92C32.9283 37.21 32.7983 37.3 32.5583 37.37C28.2783 38.56 23.9983 39.75 19.7183 40.95C19.2083 41.09 18.7083 41.28 18.1983 41.44L18.2083 41.46ZM23.6683 21.48C23.5083 23.39 23.3483 25.21 23.1983 27.04C23.1783 27.27 23.0783 27.39 22.8383 27.45C21.3283 27.85 19.8283 28.27 18.3183 28.67C18.1983 28.7 18.0483 28.7 17.9283 28.67C16.4183 28.27 14.9183 27.85 13.4083 27.45C13.1683 27.39 13.0783 27.25 13.0583 27.03C12.9783 26.02 12.8783 25.02 12.8083 24.01C12.7883 23.66 12.6883 23.51 12.3083 23.52C11.0883 23.54 9.87833 23.52 8.65833 23.52C8.09832 23.52 8.08832 23.52 8.13832 24.08C8.32832 26.23 8.51832 28.38 8.69832 30.53C8.72832 30.84 8.83833 31 9.15833 31.09C12.0383 31.88 14.9183 32.69 17.7983 33.49C17.9983 33.54 18.2283 33.54 18.4283 33.49C21.2883 32.71 24.1383 31.9 26.9983 31.12C27.4083 31.01 27.5283 30.81 27.5483 30.42C27.5883 29.64 27.6583 28.86 27.7283 28.08C27.8783 26.37 28.0383 24.67 28.1883 22.96C28.3183 21.56 28.4383 20.17 28.5683 18.77C28.6283 18.13 28.6683 17.49 28.7183 16.8H12.1483C12.0083 15.25 11.8783 13.76 11.7383 12.22H12.2683C15.3983 12.22 18.5383 12.22 21.6683 12.22C23.9883 12.22 26.3183 12.22 28.6383 12.22C28.9983 12.22 29.1583 12.16 29.1783 11.75C29.2483 10.5 29.3683 9.25 29.5083 8C29.5483 7.63 29.4683 7.54 29.0983 7.54C21.7783 7.54 14.4583 7.54 7.13832 7.54C6.99832 7.54 6.85832 7.56 6.67832 7.57C6.72832 8.1 6.77832 8.58 6.81832 9.06C6.95832 10.74 7.09832 12.42 7.24832 14.1C7.44832 16.37 7.66832 18.64 7.86832 20.91C7.91832 21.46 7.90832 21.46 8.47832 21.46C13.3683 21.46 18.2583 21.46 23.1483 21.46H23.6583L23.6683 21.48Z" fill="#FD523A"/>
</svg>
