<?xml version="1.0" encoding="UTF-8"?>
<svg id="Capa_1" xmlns="http://www.w3.org/2000/svg" version="1.1" viewBox="0 0 39 38">
  <!-- Generator: Adobe Illustrator 29.0.1, SVG Export Plug-In . SVG Version: 2.1.0 Build 192)  -->
  <defs>
    <style>
      .st0 {
        fill: #34353a;
      }
    </style>
  </defs>
  <path class="st0" d="M38.5,6.3v24.9c0,.2,0,.3-.1.5-.6,3.3-3.3,5.5-6.8,5.5H7.4c-.4,0-.8,0-1.1,0-3.4-.6-5.8-3.3-5.8-6.7V7c0-.4,0-.9.1-1.3C1.2,2.5,3.9.2,7.2.2c8.2,0,16.3,0,24.5,0,3.2,0,5.8,2.1,6.6,5.1,0,.3.1.6.2.9h0ZM12.9,21.1h.6c1.2,0,2.5,0,3.7-.3,4.5-1.1,5.2-6.4,3-9-1.2-1.4-2.8-2-4.6-2.1-1.9,0-3.8,0-5.7,0s-.5.1-.5.5c0,2.9,0,5.9,0,8.9v6.9c0,.4.1.5.5.5.8,0,1.7,0,2.5,0,.4,0,.5,0,.5-.5,0-.7,0-1.5,0-2.2v-2.6ZM27,15.3c0-.4-.1-.7-.2-1.1,0-.3-.2-.4-.5-.4-.8,0-1.6,0-2.4,0-.3,0-.3,0-.3.3,0,.8,0,1.6,0,2.3,0,3.2,0,6.4,0,9.5,0,.4.1.5.5.5.9,0,1.7,0,2.6,0s.5,0,.5-.5c0-2.4,0-4.8,0-7.2,0-.5.2-.8.6-1.1.1,0,.2-.1.3-.2.9-.4,1.8-.5,2.7-.5.4,0,.5-.1.5-.5,0-.9,0-1.7,0-2.6,0-.3,0-.4-.4-.4-.8,0-1.5.2-2.1.6-.6.4-1.2.8-1.8,1.2h0Z"/>
  <path class="st0" d="M12.9,12.8c1.1,0,2.2-.1,3.3.2,1.1.3,1.8,1.2,1.8,2.4,0,1.2-.6,2.1-1.6,2.5-1,.4-2.1.4-3.2.3,0,0-.2-.1-.2-.2,0-1.7,0-3.4,0-5.2h0Z"/>
</svg>