<?xml version="1.0" encoding="UTF-8"?>
<svg id="Capa_1" xmlns="http://www.w3.org/2000/svg" version="1.1" viewBox="0 0 39 38">
  <!-- Generator: Adobe Illustrator 29.0.1, SVG Export Plug-In . SVG Version: 2.1.0 Build 192)  -->
  <defs>
    <style>
      .st0 {
        fill: #34353a;
      }
    </style>
  </defs>
  <path class="st0" d="M.5,31.2V6.3c0-.2,0-.4.1-.5C1.3,2.4,4,.2,7.4.2h24.2c.4,0,.8,0,1.1,0,3.4.6,5.8,3.3,5.8,6.7v23.4c0,.4,0,.9-.1,1.3-.6,3.3-3.3,5.5-6.6,5.5-8.2,0-16.3,0-24.5,0-3.2,0-5.8-2.1-6.6-5.2,0-.3-.1-.6-.2-.9h0ZM9.1,18.1v7.8c0,.4.1.5.5.5.8,0,1.6,0,2.4,0,.4,0,.5-.1.5-.5,0-1.5,0-2.9,0-4.4,0-.4.1-.4.4-.4,1,0,2.1,0,3.1-.1,1.6-.2,3-.9,4-2.2.8-1.1,1.1-2.4,1-3.8-.1-1.7-.8-3.2-2.3-4.1-1.1-.7-2.3-1-3.5-1.1-1.8,0-3.6,0-5.4,0-.6,0-.6-.1-.6.6v7.7h0ZM22.8,22.8c0,.2,0,.3,0,.4v2.3c0,.3,0,.5.4.6,1.2.5,2.5.6,3.8.6,1,0,2-.2,2.9-.6,1.2-.6,1.9-1.6,2.1-3,.1-1.5-.5-2.6-1.8-3.3-.7-.4-1.4-.6-2.1-1-.5-.3-1.1-.5-1.6-.8-.3-.1-.4-.4-.3-.8,0-.3.3-.5.6-.6.3,0,.6-.1.9-.1,1.1,0,2.2.2,3.2.7.4.2.5.1.5-.3v-2.2c0-.3-.1-.4-.4-.5-1.2-.4-2.4-.4-3.6-.4-.9,0-1.7.2-2.5.6-2.4,1.2-2.8,4.7-.3,6.3.6.4,1.2.6,1.9,1,.6.3,1.2.5,1.7.8.3.2.5.5.4.8,0,.3-.3.6-.6.6-.6,0-1.2.2-1.8.1-1.1,0-2.2-.4-3.2-1h0Z"/>
  <path class="st0" d="M12.5,15.4v-2.4c0-.2,0-.4.3-.3.9,0,1.9,0,2.8.2,1.7.3,2.5,1.9,1.9,3.5-.2.5-.6.9-1.1,1.2-.6.4-1.4.5-2.1.5-.5,0-.9,0-1.4,0s-.4-.1-.4-.4c0-.8,0-1.6,0-2.3h0Z"/>
</svg>