<svg width="39" height="38" viewBox="0 0 39 38" fill="none" xmlns="http://www.w3.org/2000/svg">
<path d="M0.482422 31.2037C0.482422 22.8937 0.482422 14.5837 0.482422 6.26374C0.522422 6.08374 0.562432 5.90374 0.602432 5.72374C1.26243 2.40374 3.95243 0.213735 7.39243 0.203735C15.4524 0.203735 23.5224 0.203735 31.5824 0.203735C31.9624 0.203735 32.3524 0.213735 32.7324 0.273735C36.1324 0.823735 38.4824 3.56374 38.4824 7.01374C38.4824 14.8137 38.4824 22.6237 38.4824 30.4237C38.4824 30.8537 38.4524 31.2937 38.3724 31.7137C37.7324 34.9837 35.1024 37.2237 31.7424 37.2337C23.5824 37.2637 15.4224 37.2637 7.25243 37.2337C4.04243 37.2337 1.43242 35.1337 0.682419 32.0837C0.612419 31.7837 0.552432 31.4837 0.492432 31.1837L0.482422 31.2037ZM9.05243 18.0637C9.05243 20.6737 9.05243 23.2837 9.05243 25.8837C9.05243 26.2537 9.16242 26.3737 9.54242 26.3637C10.3524 26.3337 11.1724 26.3437 11.9924 26.3637C12.3524 26.3737 12.4624 26.2537 12.4524 25.9037C12.4324 24.4337 12.4524 22.9637 12.4424 21.4937C12.4424 21.1437 12.5624 21.0737 12.8924 21.0637C13.9324 21.0437 14.9724 21.0437 15.9924 20.9237C17.5924 20.7337 18.9724 20.0537 19.9724 18.7337C20.8224 17.5937 21.0524 16.2837 20.9724 14.9137C20.8724 13.1737 20.1424 11.7537 18.6624 10.7737C17.5924 10.0637 16.3924 9.72374 15.1324 9.70374C13.3124 9.67374 11.5024 9.73373 9.68242 9.75373C9.09242 9.75373 9.07243 9.62374 9.07243 10.3937C9.07243 12.9537 9.07243 15.5137 9.07243 18.0737L9.05243 18.0637ZM22.7724 22.7937C22.7524 22.9837 22.7324 23.1037 22.7324 23.2137C22.7324 23.9837 22.7324 24.7437 22.7324 25.5137C22.7324 25.8137 22.8324 25.9837 23.1224 26.0937C24.3424 26.5737 25.6124 26.7037 26.9024 26.6837C27.9124 26.6737 28.9024 26.5137 29.8124 26.0437C31.0424 25.4037 31.7624 24.3937 31.8724 22.9937C31.9824 21.5037 31.3724 20.3737 30.0624 19.6537C29.3924 19.2837 28.6824 19.0037 27.9924 18.6637C27.4424 18.3937 26.8824 18.1337 26.3524 17.8237C26.0924 17.6737 25.9524 17.3837 26.0324 17.0537C26.1124 16.7337 26.3224 16.5337 26.6424 16.4737C26.9324 16.4137 27.2224 16.3437 27.5224 16.3437C28.6324 16.3637 29.7124 16.5337 30.7224 17.0037C31.1124 17.1837 31.2124 17.1237 31.2224 16.7137C31.2224 15.9837 31.2224 15.2537 31.2224 14.5237C31.2224 14.2237 31.1124 14.0737 30.8324 13.9837C29.6624 13.5937 28.4524 13.5637 27.2424 13.5937C26.3624 13.6137 25.5324 13.8137 24.7524 14.2237C22.3724 15.4737 21.9124 18.9137 24.4924 20.5137C25.0824 20.8837 25.7424 21.1637 26.3724 21.4737C26.9524 21.7537 27.5424 22.0037 28.1024 22.3037C28.3924 22.4637 28.5624 22.7537 28.4824 23.1237C28.4124 23.4637 28.1724 23.6837 27.8424 23.7137C27.2324 23.7837 26.6124 23.8637 26.0024 23.8137C24.8824 23.7337 23.8224 23.3937 22.7724 22.7837V22.7937Z" fill="#FD523A"/>
<path d="M12.4521 15.4437C12.4521 14.6537 12.4521 13.8637 12.4521 13.0737C12.4521 12.8737 12.4921 12.7237 12.7321 12.7337C13.6521 12.7737 14.6022 12.7137 15.5022 12.8837C17.2022 13.1937 18.0321 14.7937 17.4321 16.4237C17.2321 16.9737 16.8322 17.3537 16.3322 17.6237C15.6822 17.9837 14.9621 18.1237 14.2321 18.1537C13.7621 18.1737 13.2922 18.1537 12.8222 18.1537C12.5422 18.1537 12.4622 18.0437 12.4622 17.7737C12.4722 16.9937 12.4622 16.2137 12.4622 15.4337L12.4521 15.4437Z" fill="#FD523A"/>
</svg>
