<svg width="39" height="38" viewBox="0 0 39 38" fill="none" xmlns="http://www.w3.org/2000/svg">
<path d="M33.2324 0.265557C32.8524 0.205557 32.4724 0.195557 32.0824 0.195557C24.0224 0.195557 15.9524 0.195557 7.89243 0.195557C4.45243 0.195557 1.76245 2.38556 1.10245 5.71556C1.06245 5.89556 1.02242 6.07556 0.982422 6.25556V31.1956C1.04242 31.4956 1.10242 31.7956 1.17242 32.0956C1.92242 35.1456 4.53243 37.2356 7.74243 37.2456C15.9024 37.2656 24.0624 37.2756 32.2324 37.2456C35.5924 37.2356 38.2224 34.9956 38.8624 31.7256C38.9424 31.3056 38.9724 30.8656 38.9724 30.4356C38.9724 22.6356 38.9724 14.8256 38.9724 7.02556C38.9724 3.58556 36.6224 0.835557 33.2224 0.285557L33.2324 0.265557ZM35.1024 10.5756C34.8124 11.1356 34.5624 11.7156 34.2724 12.2756C33.6324 13.5556 33.0524 14.8756 32.3324 16.1056C31.4724 17.5856 30.8024 19.1656 29.9724 20.6556C29.0124 22.3956 28.1625 24.1856 27.2625 25.9456C26.9625 26.5256 26.6724 27.1156 26.3424 27.6856C26.2824 27.7956 26.2124 27.9056 26.1324 28.0356H17.2124C17.1224 27.7456 17.3124 27.5456 17.4224 27.3256C17.8824 26.4656 18.3324 25.6056 18.7724 24.7456C19.5024 23.3456 20.2224 21.9356 20.9424 20.5256C20.9724 20.4556 20.9924 20.3756 20.9124 20.2456C20.7124 20.4956 20.5224 20.7456 20.3124 20.9856C20.2124 21.1056 20.1024 21.2156 19.9924 21.3356C19.4924 21.8356 19.0124 22.3556 18.4924 22.8256C17.6924 23.5556 16.8524 24.2356 15.9024 24.7856C15.1524 25.2256 14.4124 25.6956 13.6224 26.0456C12.5624 26.5156 11.4924 26.9356 10.3624 27.2456C9.75243 27.4156 9.11243 27.4756 8.52243 27.7356C8.25243 27.8556 7.93244 27.7656 7.62244 27.8756C7.20244 28.0256 6.71244 27.9856 6.25244 28.0356C5.99244 28.0656 5.74244 28.1256 5.44244 28.1856V20.4156C7.66244 20.2056 9.70245 19.5456 11.5424 18.2956C11.8125 17.9056 12.4024 17.8256 12.5524 17.2656H5.50244C5.39244 16.6756 5.36242 11.2856 5.45242 9.20556H13.5824C13.7724 10.2956 13.4924 11.4056 13.4924 12.5156C13.4924 13.6256 13.4924 14.7356 13.4924 15.9456C13.6324 15.8456 13.7325 15.8156 13.7625 15.7456C14.8125 13.6556 15.8624 11.5656 16.9124 9.47556C16.9624 9.37556 17.0224 9.29556 17.0824 9.20556H23.6224C23.5524 9.55556 23.7024 9.89556 23.4924 10.2456C23.3924 10.4156 23.4724 10.6856 23.4724 10.9156C23.5024 11.9956 23.2324 13.0556 23.3324 14.1356C23.1024 14.6956 23.2324 15.2656 23.1824 15.9456C23.3324 15.8556 23.4324 15.8256 23.4624 15.7556C23.9524 14.7956 24.3824 13.8156 24.9124 12.8756C25.5524 11.7556 26.0724 10.5756 26.6824 9.44556C26.7224 9.37556 26.7524 9.29556 26.7924 9.18556H35.8624C35.5624 9.70556 35.3024 10.1156 35.0724 10.5456L35.1024 10.5756Z" fill="#FD523A"/>
</svg>
