<?xml version="1.0" encoding="UTF-8"?>
<svg id="Capa_1" xmlns="http://www.w3.org/2000/svg" version="1.1" viewBox="0 0 39 38">
  <!-- Generator: Adobe Illustrator 29.0.1, SVG Export Plug-In . SVG Version: 2.1.0 Build 192)  -->
  <defs>
    <style>
      .st0 {
        fill: #34353a;
      }
    </style>
  </defs>
  <path class="st0" d="M33.2.3c-.4,0-.8,0-1.1,0H7.9C4.5.2,1.8,2.4,1.1,5.7c0,.2,0,.4-.1.5v24.9c0,.3.1.6.2.9.8,3,3.4,5.1,6.6,5.2,8.2,0,16.3,0,24.5,0,3.4,0,6-2.2,6.6-5.5,0-.4.1-.9.1-1.3V7c0-3.4-2.4-6.2-5.8-6.7h0ZM35.1,10.6c-.3.6-.5,1.1-.8,1.7-.6,1.3-1.2,2.6-1.9,3.8-.9,1.5-1.5,3.1-2.4,4.5-1,1.7-1.8,3.5-2.7,5.3-.3.6-.6,1.2-.9,1.7,0,.1-.1.2-.2.4h-8.9c0-.3.1-.5.2-.7.5-.9.9-1.7,1.4-2.6.7-1.4,1.5-2.8,2.2-4.2,0,0,0-.1,0-.3-.2.2-.4.5-.6.7-.1.1-.2.2-.3.4-.5.5-1,1-1.5,1.5-.8.7-1.6,1.4-2.6,2-.8.4-1.5.9-2.3,1.3-1.1.5-2.1.9-3.3,1.2-.6.2-1.2.2-1.8.5-.3.1-.6,0-.9.1-.4.1-.9.1-1.4.2-.3,0-.5,0-.8.1v-7.8c2.2-.2,4.3-.9,6.1-2.1.3-.4.9-.5,1-1h-7c-.1-.6-.1-6,0-8.1h8.1c.2,1.1,0,2.2,0,3.3v3.4c.1,0,.2-.1.3-.2,1.1-2.1,2.1-4.2,3.1-6.3,0-.1.1-.2.2-.3h6.5c0,.4,0,.7-.1,1,0,.2,0,.4,0,.7,0,1.1-.2,2.1-.1,3.2-.2.6,0,1.1-.1,1.8.1,0,.2-.1.3-.2.5-1,.9-1.9,1.4-2.9.6-1.1,1.2-2.3,1.8-3.4,0,0,0-.2.1-.3h9.1c-.3.5-.6.9-.8,1.4h0Z"/>
</svg>