<svg width="41" height="41" viewBox="0 0 41 41" fill="none" xmlns="http://www.w3.org/2000/svg">
<rect width="41" height="41" rx="10" fill="#3D3E42"/>
<path d="M16.7514 12.9545H18.9389V23.267C18.9389 24.1998 18.7543 24.9976 18.3849 25.6605C18.0204 26.3234 17.5066 26.83 16.8438 27.1804C16.1809 27.526 15.4044 27.6989 14.5142 27.6989C13.6951 27.6989 12.9588 27.5497 12.3054 27.2514C11.6567 26.9531 11.143 26.5199 10.7642 25.9517C10.3902 25.3788 10.2031 24.6828 10.2031 23.8636H12.3835C12.3835 24.2661 12.4759 24.6141 12.6605 24.9077C12.8499 25.2012 13.108 25.4309 13.4347 25.5966C13.7661 25.7576 14.1449 25.8381 14.571 25.8381C15.035 25.8381 15.428 25.741 15.75 25.5469C16.0767 25.348 16.3253 25.0568 16.4957 24.6733C16.6662 24.2898 16.7514 23.821 16.7514 23.267V12.9545ZM30.1374 19.2543L28.2127 19.5952C28.1322 19.349 28.0044 19.1146 27.8292 18.892C27.6587 18.6695 27.4267 18.4872 27.1332 18.3452C26.8396 18.2031 26.4727 18.1321 26.0323 18.1321C25.431 18.1321 24.9291 18.267 24.5266 18.5369C24.1242 18.8021 23.9229 19.1454 23.9229 19.5668C23.9229 19.9313 24.0579 20.2249 24.3278 20.4474C24.5977 20.67 25.0333 20.8523 25.6346 20.9943L27.3675 21.392C28.3713 21.6241 29.1194 21.9815 29.6119 22.4645C30.1043 22.9474 30.3505 23.5748 30.3505 24.3466C30.3505 25 30.1611 25.5824 29.7823 26.0938C29.4083 26.6004 28.8851 26.9981 28.2127 27.2869C27.5451 27.5758 26.771 27.7202 25.8903 27.7202C24.6687 27.7202 23.672 27.4598 22.9002 26.9389C22.1284 26.4134 21.6549 25.6676 21.4798 24.7017L23.5323 24.3892C23.6602 24.9242 23.9229 25.3291 24.3207 25.6037C24.7184 25.8736 25.2369 26.0085 25.8761 26.0085C26.5721 26.0085 27.1284 25.8641 27.5451 25.5753C27.9618 25.2817 28.1701 24.9242 28.1701 24.5028C28.1701 24.1619 28.0423 23.8755 27.7866 23.6435C27.5356 23.4115 27.1497 23.2363 26.6289 23.1179L24.7823 22.7131C23.7643 22.4811 23.0115 22.1117 22.5238 21.6051C22.0408 21.0985 21.7994 20.4569 21.7994 19.6804C21.7994 19.0365 21.9793 18.473 22.3391 17.9901C22.699 17.5071 23.1961 17.1307 23.8306 16.8608C24.4651 16.5862 25.1919 16.4489 26.011 16.4489C27.19 16.4489 28.118 16.7045 28.7951 17.2159C29.4722 17.7225 29.9196 18.402 30.1374 19.2543Z" fill="#FD523A"/>
</svg>
